<svg xmlns="http://www.w3.org/2000/svg" xmlns:xlink="http://www.w3.org/1999/xlink" width="56" height="56" viewBox="0 0 56 56">
  <defs>
    <clipPath id="clip-path">
      <rect id="Rectangle_4066" data-name="Rectangle 4066" width="24" height="24" transform="translate(2091 78)" fill="#f5a623" stroke="#707070" stroke-width="1"/>
    </clipPath>
  </defs>
  <g id="Group_77695" data-name="Group 77695" transform="translate(-2358 -12)">
    <rect id="Rectangle_28157" data-name="Rectangle 28157" width="48" height="48" rx="24" transform="translate(2362 16)" fill="#fef0c7"/>
    <path id="Rectangle_28158" data-name="Rectangle 28158" d="M24-4A28,28,0,1,1-4,24,28.032,28.032,0,0,1,24-4Zm0,48A20,20,0,1,0,4,24,20.023,20.023,0,0,0,24,44Z" transform="translate(2362 16)" fill="#fffaeb"/>
    <g id="Component_100_5" data-name="Component 100 – 5" transform="translate(2374 28)">
      <g id="Mask_Group_48" data-name="Mask Group 48" transform="translate(-2091 -78)" clip-path="url(#clip-path)">
        <path id="Path_8151" data-name="Path 8151" d="M21.76,15.92,15.36,4.4A3.987,3.987,0,0,0,12,2,3.987,3.987,0,0,0,8.64,4.4L2.24,15.92a3.96,3.96,0,0,0-.25,3.99A3.936,3.936,0,0,0,5.6,21.63H18.4a3.936,3.936,0,0,0,3.61-1.72A3.959,3.959,0,0,0,21.76,15.92ZM11.25,9a.75.75,0,0,1,1.5,0v5a.75.75,0,0,1-1.5,0Zm1.46,8.71-.15.12a.757.757,0,0,1-.18.09.6.6,0,0,1-.19.06A1.225,1.225,0,0,1,12,18a1.5,1.5,0,0,1-.2-.02.636.636,0,0,1-.18-.06.757.757,0,0,1-.18-.09l-.15-.12a1.014,1.014,0,0,1,0-1.42l.15-.12a.757.757,0,0,1,.18-.09.636.636,0,0,1,.18-.06.856.856,0,0,1,.39,0,.6.6,0,0,1,.19.06.757.757,0,0,1,.18.09l.15.12a1.014,1.014,0,0,1,0,1.42Z" transform="translate(2091.44 78)" fill="#f5a623"/>
      </g>
    </g>
  </g>
</svg>
